<svg xmlns="http://www.w3.org/2000/svg" width="150" height="150" viewBox="0 0 150 150">
    <g fill="none" fill-rule="evenodd">
        <g fill-rule="nonzero">
            <g transform="translate(-105 -184) translate(105 184)">
                <path fill="#2D3136" d="M150 74.998c0 13.357-3.494 25.896-9.612 36.761-.108.192-.215.384-.326.573-.11.191-.22.383-.331.572-2.079 3.54-4.437 6.893-7.05 10.032-3.272 3.933-6.938 7.527-10.939 10.718-2.17 1.734-4.437 3.347-6.792 4.83-1.737 1.1-3.523 2.125-5.354 3.078C99.246 146.952 87.48 150 75.002 150c-12.478 0-24.247-3.048-34.598-8.438-1.942-1.012-3.832-2.105-5.666-3.276-5.016-3.197-9.629-6.977-13.737-11.242-1.275-1.323-2.505-2.693-3.68-4.108-1.954-2.349-3.77-4.82-5.429-7.403-.071-.114-.146-.228-.217-.342-.124-.186-.241-.371-.358-.56-.117-.188-.234-.377-.348-.566l-.313-.517c-3.714-6.18-6.56-12.946-8.373-20.119-.22-.865-.422-1.734-.611-2.609C.576 85.72 0 80.428 0 74.998 0 33.576 33.58 0 75.002 0 80.428 0 85.72.576 90.82 1.672c.875.189 1.744.39 2.61.611 15.317 3.868 28.758 12.45 38.689 24.11.494.58.979 1.169 1.457 1.764C143.852 40.99 150 57.277 150 74.998z"/>
                <g fill="#FFF">
                    <path d="M14.083 15.114L22.527 14.18 14.083 13.246 13.149 4.8 12.215 13.246 3.77 14.18 12.215 15.114 13.149 23.56zM36.923 107.233L45.368 106.299 36.923 105.366 35.99 96.92 35.056 105.366 26.611 106.299 35.056 107.233 35.99 115.679zM101.221 15.452L113.845 14.056 101.221 12.661 99.826.035 98.43 12.661 85.806 14.056 98.43 15.452 99.826 28.078z" transform="translate(13 20)"/>
                    <path d="M0.65 62.96L3.695 62.96 3.695 66.006 0.65 66.006z" transform="translate(13 20) rotate(-135 2.172 64.483)"/>
                    <path d="M124.022 56.434L127.067 56.435 127.067 59.48 124.022 59.48z" transform="translate(13 20) rotate(-135 125.545 57.957)"/>
                    <path d="M87.086 20.209L90.132 20.21 90.132 23.255 87.087 23.255z" transform="translate(13 20) rotate(-135 88.61 21.732)"/>
                    <path d="M24.53 4.872L27.575 4.872 27.576 7.918 24.53 7.918z" transform="translate(13 20) rotate(-135 26.053 6.395)"/>
                    <path d="M67.18 106.69L70.225 106.69 70.226 109.736 67.18 109.735z" transform="translate(13 20) rotate(-135 68.703 108.213)"/>
                </g>
                <path fill="#E6E6E6" d="M77 107.522l3.145-3.149c.356-.357.73-.687 1.119-.987l.003.003c.371 1.029 7.287-5.86 7.661-6.898-5.677-5.685-8.613-8.766.07-.07l11.039 11.054.047.047.214.214 2.702 2.706-.472.473L91.458 122l-2.915-2.92"/>
                <path fill="#F77759" d="M117 116.943L101.94 132 99 129.06 113.945 114.113 114.057 114z"/>
                <path fill="#CCC" d="M114 113.553l-.116.115L98.486 129l-4.55-4.53.007-.005-2.943-2.93 11.114-11.063.474-.472 2.942 2.93c2.165-2.159 5.676-2.159 7.844 0l.626.623z"/>
                <path fill="#E6E6E6" d="M68 62.77L82.852 57.224 87.01 46 98 49.249 93.248 65.789 79.293 74"/>
                <path fill="#CCC" d="M31.782 51.044c0-.692.042-1.373.126-2.044l-8.796 8.56c-2.816 2.74-2.816 7.18 0 9.92l4.056 3.943 3.577 3.48L42.151 86h.619V67.389l.23-.59c-6.552-2.39-11.218-8.543-11.218-15.755z"/>
                <g fill="#FFF">
                    <path d="M10.114 36.42c2.012-2.711 1.86-6.494-.456-9.047l.012-.009 7.066-6.94h7.6c.516 0 1.02.048 1.508.139l-.027.147v15.322l.078.43c-.504.097-1.025.147-1.559.147h-12.09c-.729 0-1.44-.065-2.132-.188z" transform="translate(43 64)"/>
                    <path d="M.257 21.764V2.921l.231-.598c1.895.698 3.945 1.08 6.09 1.08 3.791 0 7.302-1.198 10.159-3.227v20.248l-7.066 6.94-.012.009c-.093-.106-.192-.21-.294-.31-2.455-2.41-6.212-2.758-9.048-1.047-.039-.39-.06-.783-.06-1.181v-3.07z" transform="translate(43 64)"/>
                </g>
                <path fill="#F2F2F2" d="M101.752 89.182l-9.428 9.434-.02-.02-2.956 2.958c-8.585 8.595-22.496 8.595-31.081 0L57 100.286h9.478c.521 0 .503-16.101 0-16.101H59.06V64.042c.84-.61 1.622-1.295 2.338-2.042l.624.108 22.013 22.04 5.261-5.267 1.083-1.084 3.099-3.102c.351-.352.72-.677 1.103-.972l.003.003c.366 1.013.956 1.968 1.773 2.785 2.97 2.973 7.787 2.973 10.756 0 .825-.823 1.416-1.786 1.785-2.809.392.302.77.633 1.13.993l3.052 3.054.047.047.21.211L116 80.672l-.465.466-10.909 10.92-2.874-2.876z"/>
                <g fill="#F77759">
                    <path d="M87.632 16.192L72.32 31.616 69.33 28.604 84.525 13.293 84.64 13.177zM66.238 2.576c-.37 1.034-.964 2.01-1.794 2.842-2.986 3.008-7.829 3.008-10.815 0-.82-.827-1.415-1.793-1.783-2.819l-.003-.003c.515-.406 1.057-.761 1.616-1.067C55.715.302 58.286-.13 60.763.234c1.951.287 3.84 1.067 5.475 2.342zM9.185 20.178c2.271 2.57 2.421 6.378.448 9.108C4.51 28.364.539 24.099.018 18.812c2.784-1.722 6.47-1.372 8.88 1.055.099.1.196.204.287.311z" transform="translate(43 71)"/>
                </g>
                <path fill="#CCC" d="M128 84.553l-.116.115L112.486 100l-4.55-4.53.007-.005-2.943-2.93 11.114-11.063.474-.472 2.942 2.93c2.165-2.159 5.676-2.159 7.844 0l.626.623z"/>
                <path fill="#E6E6E6" d="M62.626 62.089L62 61.98c1.865-1.943 3.272-4.33 4.035-6.981l5.477 5.434h.003l11.163 11.073h.003l.96.952v.003L90 78.764 84.72 84 62.626 62.089z"/>
                <path fill="#F2F2F2" d="M37 69.398L36.745 69.651 31.991 74.406 31.397 75 28 71.601 28.593 71.008 33.347 66.253 33.603 66z"/>
                <path fill="#F77759" d="M68.436 84.827l2.385-2.479c.716-.744 1.94-.217 1.94.836v2.444l2.068.197c2.363.225 4.171 2.284 4.171 4.75v3.939c0 2.258-1.523 4.206-3.649 4.669L67 101V84.687"/>
                <circle cx="49.5" cy="51.5" r="17.5" fill="#F2F2F2"/>
                <ellipse cx="48.44" cy="49.138" fill="#51BEE5" rx="12.323" ry="15.154" transform="rotate(-107.687 48.44 49.138)"/>
                <ellipse cx="57.78" cy="48.124" fill="#73D5EF" rx="4.708" ry="3.384" transform="rotate(-100.591 57.78 48.124)"/>
                <path fill="#F77759" d="M87.664 45.848l-2.426-3.732c-.63-.97.064-2.254 1.22-2.254h1.32l1.678-3.854c1.004-2.304 3.557-3.507 5.968-2.812l.957.276c2.448.706 3.975 3.143 3.547 5.658L98.248 49l-10.584-3.152z"/>
            </g>
        </g>
    </g>
</svg>
